$L=16;t110@v48/:@5@w4@e1,0,0,144,0q16l16/:$Lo5/:4e4&>b8&<a4&c8&f+4&d8&>b4&a+8&<://:2g4&d8&e4&>b8&<f+4&d8&a4&e8&://:4/:3g&>b&<://:3a+&e&://:3a&c&:/a&d+&f+&d+&b&d+&://:2f+&g&a&b&<d&>b&<f+&d&>a&g&f+&b&<a&f+&d&>a&g&f+&e&g&a&<d&er>:/o6/:4argrf+rerf+rgr:/://;@v16@d-1r16:/;@6-1@e1,0,0,144,0q16@v120/:$Lo3/:16e8&<e4&>://:2/:2c8&<c4&>://:2d8&<d4&>:/://:4e8&<e8&<e8&>>f+8&<f+8&<f+8&>>f8&<f8&<f8&>>>b8&<b8&<b8&>://:2e4&b8&<c4&>b8&c4&g8&a4&b8&:/o2e1.&/e1.&:/e1.